PathFileType	3	(X/Y/Z)	D:\Jess\Healthy\Labelled\HA28\20251211\SRRun01.trc
DataRate	CameraRate	NumFrames	NumMarkers	Units	OrigDataRate	OrigDataStartFrame	OrigNumFrames
250.0	250.0	4	37	mm	250.0	35937	2501
Frame#	Time	C7			T10			CLAV			LSHO			RSHO			LASIS			RASIS			LPSIS			RPSIS			LILCR			RILCR			LGTR			LTHI			LLTHI			LLEP			LMEP			LPSH			LLSH			LDSH			LLMAL			LMMAL			LTOE			L5TH			LHEE			RGTR			RTHI			RLTHI			RLEP			RMEP			RPSH			RLSH			RDSH			RLMAL			RMMAL			RTOE			R5TH			RHEE			
		X1	Y1	Z1	X2	Y2	Z2	X3	Y3	Z3	X4	Y4	Z4	X5	Y5	Z5	X6	Y6	Z6	X7	Y7	Z7	X8	Y8	Z8	X9	Y9	Z9	X10	Y10	Z10	X11	Y11	Z11	X12	Y12	Z12	X13	Y13	Z13	X14	Y14	Z14	X15	Y15	Z15	X16	Y16	Z16	X17	Y17	Z17	X18	Y18	Z18	X19	Y19	Z19	X20	Y20	Z20	X21	Y21	Z21	X22	Y22	Z22	X23	Y23	Z23	X24	Y24	Z24	X25	Y25	Z25	X26	Y26	Z26	X27	Y27	Z27	X28	Y28	Z28	X29	Y29	Z29	X30	Y30	Z30	X31	Y31	Z31	X32	Y32	Z32	X33	Y33	Z33	X34	Y34	Z34	X35	Y35	Z35	X36	Y36	Z36	X37	Y37	Z37	

938	143.744	849.6803556162923	1369.925881445887	-589.6285914323355	838.2314983112501	1123.933634097715	-489.2095212532542	875.3190833114522	1270.978730318966	-719.4997140083228	705.7107244887723	1336.841507881641	-672.4530780196211	1014.957191326394	1336.18288257039	-611.184997670981	750.1367889581696	882.0892620278966	-699.3617046919235	980.1795589033269	921.3417833511994	-685.6510680253808	837.3692643886581	928.7160693684225	-521.217462677	878.5415657082845	935.3484039515837	-517.6132267368392	711.6422109582884	948.3325140668692	-636.5240550982334	1004.572643974791	975.2025166862525	-617.9244577275061	687.2883137630932	784.6906800216907	-617.3110563083967	758.8525638651917	637.9880974631914	-695.7813199923198	704.5152170996063	567.2434500884804	-574.8190337531503	706.7119097538597	449.6843070384863	-552.7428730336976	nan	nan	nan	740.7543509794722	352.5425631546661	-514.7568547611418	702.7445684003667	413.3337002569748	-382.3875713381041	740.8491292886814	310.8318397889423	-317.9007479415736	721.2842654290127	334.3198244120205	-201.0446998506527	nan	nan	nan	699.4144984394577	213.1192280846165	-158.4629908589929	688.6607453668369	257.3267944486956	-130.4259163982612	794.6690615587223	390.8002469999362	-180.7059972773864	1045.740132308827	824.3456544072604	-644.3656591713674	952.1951827626829	704.4120358204342	-758.0021373768706	988.596589217189	579.7120923570201	-704.6655804087704	959.4947089964173	449.2037899972468	-717.1674550760305	nan	nan	nan	898.1956928965716	378.6378225447299	-749.6772040940067	960.9333893071002	298.431807468867	-664.021784052399	894.6389332486958	184.6884384005635	-679.0867668190534	913.0607824803453	107.611364333611	-599.3016487959178	nan	nan	nan	907.6368114863454	58.56216390153539	-721.4506007442324	940.7612123428958	36.94810804489207	-677.8174428630675	858.7440243468036	77.31770615378738	-520.5950231610329	
939	143.748	850.6022173479114	1367.522559914822	-589.409626935565	839.7044812983336	1121.571038368739	-488.1636785444954	874.8094487511067	1267.160928474104	-719.3565979140321	705.5339828891158	1333.830010805452	-670.8959700430443	1015.8994793621	1332.90234131624	-612.7258774788969	750.4089566266263	878.9371343324426	-698.3821059293122	980.6562548285419	918.7625243742414	-684.6128761580142	837.2044058823798	925.6040511211678	-519.9071382979606	878.3528803900628	932.5737403339771	-516.3720826141825	711.606254853733	944.5886415976055	-634.9789489920812	1005.006256606103	972.6294146655525	-616.9775578467469	687.6051673414784	780.8588660913077	-617.163921822978	757.1365443338648	635.9966105673174	-697.8903709862062	703.009172602796	564.0755620466167	-577.8133262319412	704.641077684914	446.8054753861707	-558.0226839306789	nan	nan	nan	738.1502319877335	349.9324494672358	-520.381131555622	701.6054348091556	411.9606576169774	-387.9715576576035	739.5998487028825	309.9919953419297	-323.1678049823652	721.3317678038197	334.8910912729661	-206.5374995172446	nan	nan	nan	697.8589005886869	214.0961636063643	-163.7981551030537	687.7374410620139	258.5122375344426	-135.9276251758266	795.5849994283133	390.4538477715093	-186.4876100905532	1046.087833510143	821.9830581791566	-642.8535052833018	953.0029892791119	701.0351516674602	-756.1106804731638	987.967558495787	576.7098779303765	-701.1699988228833	958.3745158353042	446.7237015953113	-713.5449299267461	nan	nan	nan	896.9506137972378	375.9190758288511	-745.3456703664134	959.651605847569	296.9803553761325	-657.9072166325274	893.6234764934775	183.2175984382649	-670.978901849913	912.0806463264711	107.7668873411368	-589.5801569765957	nan	nan	nan	907.187112407762	58.60720551373348	-711.3457623992605	940.4039289240663	37.28380315748997	-667.6879368716078	857.8301507008583	77.179527315443	-510.5710569184949	
940	143.752	851.5192718318731	1365.275867665662	-589.2227640489936	841.2046457551509	1119.419492107674	-487.1033810852654	874.2409635150149	1263.508915320049	-719.2102392467962	705.3916211375287	1331.023762159967	-669.3093092093545	1016.754179677488	1329.828146701782	-614.4124088570421	750.6969436530784	875.9941585078848	-697.3280630857607	981.1258645697236	916.3176492936442	-683.515588495451	836.9871037223783	922.8008458144058	-518.5789869491222	878.1117427853736	930.0836209193088	-515.1223560468164	711.5754999640483	941.1132861757324	-633.3996717854372	1005.391677009681	970.23636732687	-615.9637536672263	687.8827192876633	777.30210429946	-616.9666042662668	755.5236898520487	634.2931948977397	-700.0262792642703	701.5128159186717	561.1190280155996	-580.9612565639476	702.6806972607316	444.1063039524288	-563.5001919352618	nan	nan	nan	735.7809367187073	347.507083713299	-526.2404561898088	700.4549589244077	410.5312240078436	-393.7583284821376	738.4883808193346	309.0755351183412	-328.7215661085481	721.4038979631673	335.1700202769635	-212.3136397202148	nan	nan	nan	696.5110697575941	214.7032713557689	-169.5630517624446	686.9175086830229	259.2669609011826	-141.8095402032301	796.3846797146526	389.9076086871597	-192.4043597841729	1046.414579085042	819.7367582242603	-641.1288605175988	953.7889747378257	697.7917333960349	-753.9973002517011	987.3452001054162	573.8013128917019	-697.4688913258818	957.3350360673321	444.3395980074646	-709.7024120376343	nan	nan	nan	895.8215089177199	373.3280888904644	-740.8280060069402	958.4821795442205	295.5933253998654	-651.8192211313923	892.7314103955947	181.8880490351376	-662.9175506546833	911.2476391402247	108.0159924493704	-580.0315984297548	nan	nan	nan	906.7903395050548	58.56747678940251	-701.3640368001993	940.0743239357849	37.56536187729623	-657.6388618781737	857.05472312195	77.30763261411575	-500.7054553279296	
941	143.756	852.4304452041067	1363.196314921923	-589.0650276179638	842.7291909782658	1117.486817399339	-486.0338654548192	873.6121312212737	1260.050188290502	-719.0592611415392	705.2803137408686	1328.440163549313	-667.6870275111972	1017.514336226474	1326.977474459837	-616.2406036659145	750.996060569473	873.2871185346742	-696.2041387976752	981.5854169941782	914.0171595104098	-682.3685029241618	836.7266874263717	920.316769891276	-517.239000743369	877.8283151791885	927.882792266774	-513.8696436302391	711.548208432523	937.9455498074376	-631.7982367918943	1005.726006564421	968.0274832904479	-614.8900843548622	688.1202701241299	774.0508006545469	-616.70746019812	754.0265006019256	632.8908887171474	-702.1820516897844	700.0368260875873	558.3908378442171	-584.2581988764545	700.8426399557676	441.6056846723929	-569.1736098836694	nan	nan	nan	733.6561672990792	345.2767475144395	-532.3324497992267	699.3000342869587	409.0604806502655	-399.7404061877315	737.5158584500477	308.0828462227877	-334.5551783756862	721.4902980707959	335.1500025412925	-218.3531678476613	nan	nan	nan	695.368893354917	214.9261540314031	-175.7410235986675	686.1978431673496	259.5775737364715	-148.0497515409189	797.0603965690294	389.1621337103468	-198.4393459997602	1046.714644115973	817.6128422898108	-639.2089572811204	954.5218222711537	694.7099299716837	-751.6807281653217	986.7412715626506	571.0139840669364	-693.6172772077518	956.38858907673	442.0549056982555	-705.6651808991894	nan	nan	nan	894.8157771856343	370.8571153602376	-736.123168575256	957.4381841791636	294.267562373988	-645.7606991652109	891.9652681445424	180.6881574237336	-654.8872824460298	910.5698227228656	108.3413726109017	-570.631120754465	nan	nan	nan	906.4475719552506	58.44331942283537	-691.4848645207086	939.7799659916044	37.78657013800805	-647.6564968969051	856.4257325469359	77.67592372325959	-490.9736594494552	
